<?xml version="1.0" encoding="UTF-8"?>
<svg xmlns="http://www.w3.org/2000/svg" xmlns:xlink="http://www.w3.org/1999/xlink" width="1134.2pt" height="192.4pt" viewBox="0 0 1134.2 192.4" version="1.1">
<defs>
<clipPath id="clip1">
  <path d="M 0 0 L 1134 0 L 1134 192.398438 L 0 192.398438 Z M 0 0 "/>
</clipPath>
</defs>
<g id="surface1">
<g clip-path="url(#clip1)" clip-rule="nonzero">
<path style=" stroke:none;fill-rule:evenodd;fill:rgb(0%,0.784302%,0%);fill-opacity:1;" d="M 1133.898438 92.753906 L 1133.898438 85.15625 C 1130.519531 79.714844 1130.871094 78.246094 1121.519531 76.121094 C 1103.390625 72 1071 78.992188 1061.339844 73.464844 C 1068.71875 64.347656 1074.308594 59.875 1084.980469 53.117188 C 1089.710938 50.121094 1093.769531 47.691406 1098.738281 44.691406 C 1103.289063 41.945313 1107.429688 38.78125 1113.769531 37.515625 C 1121.519531 35.972656 1127.46875 38.125 1126.671875 28.414063 C 1124.71875 4.703125 1094.300781 27.5 1085.648438 32.980469 C 1076.738281 38.625 1067.160156 45.160156 1059.929688 51.691406 C 1053.300781 57.667969 1043.578125 67.890625 1040.820313 77.015625 C 1038.871094 83.460938 1039.058594 91.660156 1044.089844 94.03125 C 1055.609375 99.457031 1086.039063 88.886719 1103.160156 89.414063 C 1124.320313 90.070313 1103.039063 107.957031 1098.898438 111.496094 C 1094.761719 115.03125 1091.011719 117.867188 1086.320313 121.105469 C 1079.289063 125.949219 1065.878906 133.824219 1058.519531 137.714844 C 1050.128906 142.152344 1036.410156 143.863281 1030.878906 154.523438 C 1027.488281 161.066406 1028.808594 167.410156 1035.03125 169.734375 C 1041.800781 172.265625 1047.109375 168.882813 1052.109375 166.324219 C 1068.988281 157.683594 1084.539063 147.210938 1098.488281 135.179688 C 1099.730469 134.101563 1100.171875 133.902344 1101.550781 132.578125 C 1110.121094 124.351563 1112.480469 122.636719 1120.789063 113.039063 C 1122.679688 110.851563 1123.949219 109.191406 1125.800781 106.691406 C 1134.199219 95.324219 1131.25 97.367188 1133.898438 92.753906 Z M 223.15625 58.640625 C 274.429688 34.933594 264.441406 56.898438 205.648438 93.53125 C 210.265625 76.628906 215.574219 62.144531 223.15625 58.640625 Z M 0.046875 162.921875 L 0.046875 172.628906 C 0.113281 172.75 0.203125 172.796875 0.234375 173.007813 L 3.074219 180.296875 C 4.59375 182.945313 5.550781 184.492188 9.519531 184.808594 C 15.378906 185.273438 16.46875 180.585938 19.242188 172.765625 C 27.277344 150.074219 27.714844 126.835938 36.578125 104.066406 C 39.78125 95.832031 39.847656 97.089844 47.433594 93.667969 C 63.03125 86.636719 78.5625 81.695313 95.164063 76.65625 C 100.828125 74.933594 106.222656 73.433594 111.679688 71.910156 C 115.925781 70.722656 116.121094 71.007813 117.828125 67.167969 C 119.019531 64.5 119.21875 60.5 116.804688 59.035156 C 108.636719 54.078125 51.890625 76.816406 47.445313 73.601563 C 46.003906 72.144531 51.183594 60.027344 51.734375 58.722656 C 60.53125 37.855469 65.742188 40.292969 90.289063 35.851563 C 101.679688 33.789063 113.074219 30.613281 116.925781 21.335938 C 123.191406 6.21875 98.214844 10.84375 89.9375 12.808594 C 75.199219 16.300781 62.445313 23.453125 49.171875 28.285156 C 47.050781 29.058594 47.175781 28.695313 46.292969 30.605469 C 40.425781 43.332031 35.375 61.289063 29.164063 75.40625 C 25.339844 84.097656 27.277344 81.8125 19.21875 85.792969 C 14.476563 88.132813 13.75 97.363281 18.726563 99.441406 C 17.183594 104.140625 15.972656 110.179688 14.386719 115.445313 C 10.421875 128.589844 4.972656 141.511719 1.824219 154.433594 C 1.199219 156.992188 1.082031 160.566406 0.046875 162.921875 Z M 168.015625 192.324219 L 175.84375 192.324219 C 178.371094 190.597656 178.605469 191.640625 180.121094 188.546875 C 185.570313 177.398438 190.898438 144.824219 194.496094 130.597656 C 195.398438 127.035156 196.351563 120.464844 200.015625 120.019531 C 204.011719 119.53125 232.839844 139.914063 239.890625 144.359375 C 253.648438 153.035156 269.898438 161.269531 287.410156 161.394531 C 293.851563 161.4375 295.949219 161.058594 300.53125 158.195313 C 303.746094 156.1875 306.871094 153.71875 306.871094 148.371094 C 305.757813 147.109375 304.359375 145.65625 303.09375 144.492188 C 300.84375 142.425781 300.441406 142.910156 297.203125 142.332031 C 271.789063 137.8125 250.722656 127.582031 230.285156 112.839844 C 226.882813 110.386719 224.203125 108.019531 221.308594 105.808594 L 237.953125 95.132813 C 243.496094 91.492188 256.117188 81.269531 260.464844 76.527344 C 266.90625 69.503906 274.929688 62.449219 279.179688 53.644531 C 282.121094 47.558594 284.035156 37.515625 280.011719 31.464844 C 277.050781 27.015625 267.832031 23.316406 260.453125 23.570313 C 250.332031 23.921875 238.964844 30.03125 230.863281 35.113281 C 228.550781 36.5625 224.160156 39.582031 221.699219 40.324219 C 220.21875 35.0625 215.214844 26.472656 207.875 30.070313 C 206.175781 33.75 203.730469 46.347656 202.46875 51.144531 C 192.597656 88.644531 183.300781 116.074219 170.992188 152.5 C 168.683594 159.332031 166.101563 165.535156 164.121094 172.078125 C 162.761719 176.5625 161.132813 184.34375 164.359375 188.71875 L 167.738281 192.078125 C 167.796875 192.132813 167.929688 192.238281 168.015625 192.324219 Z M 393.953125 22.152344 C 393.15625 22.535156 392.441406 21.800781 391.148438 25.707031 C 389.324219 31.222656 389.703125 35.585938 388.789063 42.292969 C 384.035156 77.136719 371.515625 109.132813 361.136719 142.226563 C 351.179688 173.976563 371.152344 174.070313 375.238281 171.433594 C 377.6875 169.859375 377.542969 165.746094 378.15625 162.0625 C 378.773438 158.371094 379.46875 154.992188 380.214844 151.351563 C 387.375 116.566406 402.953125 83.164063 408.671875 52.199219 C 409.640625 46.953125 411.785156 34.695313 411.132813 29.421875 C 410.296875 22.675781 397.867188 20.273438 393.953125 22.152344 Z M 489.472656 93.300781 C 489.957031 87.390625 493.785156 77.535156 496.925781 73.832031 C 502.554688 67.195313 530.425781 62.710938 539.960938 61.089844 C 547.421875 59.820313 556.667969 58.074219 560.671875 53.914063 C 564.550781 49.878906 567.625 35.214844 560.410156 33.707031 C 549.921875 31.511719 525.300781 39.992188 514.605469 43.3125 C 507.128906 45.632813 500.199219 47.179688 494.890625 51.476563 C 484.71875 59.710938 479.339844 71.816406 475.335938 87.722656 C 473.441406 95.261719 472.25 102.886719 470.179688 110.417969 C 466.667969 123.195313 462.855469 146.664063 468.027344 159.175781 C 471.164063 166.761719 477.28125 168.453125 486.878906 168.328125 C 498.601563 168.179688 520.765625 159.882813 529.964844 155.574219 C 543.035156 149.449219 553.992188 141.71875 559.824219 130.085938 C 561.535156 126.671875 561.796875 122.816406 558.625 121.035156 C 555.46875 119.261719 550.90625 122.550781 548.335938 123.851563 C 532.871094 131.675781 504.101563 143.996094 488.027344 147.136719 C 481.84375 148.347656 480.839844 148.066406 480.050781 141.992188 C 479.527344 137.992188 480.753906 133.546875 481.746094 130.011719 C 483.320313 124.417969 483.523438 125.445313 488.0625 122.628906 C 490.863281 120.886719 494.070313 119.070313 497.046875 117.449219 C 515.625 107.3125 535.445313 98.605469 556.257813 93.003906 C 561.910156 91.484375 573.476563 89.253906 575.804688 84.640625 C 581.296875 73.761719 562.195313 77.359375 557.277344 77.875 C 534.746094 80.238281 503.664063 92.519531 489.472656 93.300781 Z M 783.742188 -0.0390625 L 778.625 -0.0390625 L 771.121094 12.441406 C 745.984375 56.832031 745.800781 121.371094 743.960938 124.695313 C 741.90625 124.230469 733.3125 113.105469 731.890625 111.28125 C 729.929688 108.765625 728.191406 107.023438 726.023438 104.425781 L 709.132813 83.03125 C 701.03125 72.332031 693.160156 59.511719 687.671875 47.285156 C 686.761719 45.253906 686.800781 44.066406 684.726563 43.574219 C 680.273438 42.511719 678.535156 45.992188 677.261719 48.558594 C 670.003906 63.207031 667.144531 67.925781 661.125 83.949219 C 656.421875 96.457031 652.777344 110 650.230469 124.140625 C 648.949219 131.261719 647.828125 139.351563 647.519531 146.945313 C 647.332031 151.503906 647.417969 153.953125 650.230469 156.113281 C 654.574219 159.449219 668.6875 161.296875 670.269531 141.746094 C 671.800781 122.828125 676.824219 95.253906 685.003906 79.464844 C 686.429688 80.898438 691.019531 89.390625 692.40625 91.722656 C 701.550781 107.105469 723.472656 139.492188 737.796875 147.441406 C 746.296875 152.160156 753.0625 152 759.78125 144.773438 C 761.761719 142.640625 762.566406 141.324219 762.75 137.519531 C 764.769531 96.417969 763.910156 52.769531 782.257813 15.050781 C 785.136719 9.132813 787.605469 6.742188 783.742188 -0.0390625 Z M 873.558594 27.964844 C 874.671875 21.179688 879.539063 18.550781 884.9375 25.292969 C 887.414063 28.390625 888.960938 30.980469 889.363281 34.625 C 976.550781 3.058594 992.070313 91.628906 866.25 145.984375 C 863.394531 147.21875 860.941406 148.542969 860.023438 153.292969 C 858.605469 160.640625 855.972656 164.214844 850.820313 162.496094 C 841.988281 159.554688 839.324219 154.121094 841.886719 145.714844 C 854.316406 104.964844 867.40625 65.480469 873.558594 27.964844 Z M 884.929688 58.28125 C 955.046875 21.675781 969.285156 88.210938 868.6875 122.976563 C 868.417969 102.765625 877.621094 84.988281 884.929688 58.28125 Z M 884.929688 58.28125 "/>
</g>
<path style=" stroke:none;fill-rule:evenodd;fill:rgb(89.0625%,0%,8.616638%);fill-opacity:1;" d="M 141.398438 79.519531 C 148.890625 79.519531 154.960938 85.589844 154.960938 93.082031 C 154.960938 100.570313 148.890625 106.640625 141.398438 106.640625 C 133.910156 106.640625 127.839844 100.570313 127.839844 93.082031 C 127.839844 85.589844 133.910156 79.519531 141.398438 79.519531 Z M 141.398438 79.519531 "/>
<path style=" stroke:none;fill-rule:evenodd;fill:rgb(0%,54.492188%,81.639099%);fill-opacity:1;" d="M 319.769531 79.519531 C 327.257813 79.519531 333.328125 85.589844 333.328125 93.082031 C 333.328125 100.570313 327.257813 106.640625 319.769531 106.640625 C 312.277344 106.640625 306.207031 100.570313 306.207031 93.082031 C 306.207031 85.589844 312.277344 79.519531 319.769531 79.519531 Z M 319.769531 79.519531 "/>
<path style=" stroke:none;fill-rule:evenodd;fill:rgb(100%,92.576599%,0%);fill-opacity:1;" d="M 438.773438 79.519531 C 446.261719 79.519531 452.335938 85.589844 452.335938 93.082031 C 452.335938 100.570313 446.261719 106.640625 438.773438 106.640625 C 431.285156 106.640625 425.210938 100.570313 425.210938 93.082031 C 425.210938 85.589844 431.285156 79.519531 438.773438 79.519531 Z M 438.773438 79.519531 "/>
<path style=" stroke:none;fill-rule:evenodd;fill:rgb(89.0625%,0%,8.616638%);fill-opacity:1;" d="M 613.90625 79.519531 C 621.398438 79.519531 627.46875 85.589844 627.46875 93.082031 C 627.46875 100.570313 621.398438 106.640625 613.90625 106.640625 C 606.417969 106.640625 600.347656 100.570313 600.347656 93.082031 C 600.347656 85.589844 606.417969 79.519531 613.90625 79.519531 Z M 613.90625 79.519531 "/>
<path style=" stroke:none;fill-rule:evenodd;fill:rgb(100%,92.576599%,0%);fill-opacity:1;" d="M 811.121094 79.519531 C 818.613281 79.519531 824.683594 85.589844 824.683594 93.082031 C 824.683594 100.570313 818.613281 106.640625 811.121094 106.640625 C 803.632813 106.640625 797.5625 100.570313 797.5625 93.082031 C 797.5625 85.589844 803.632813 79.519531 811.121094 79.519531 Z M 811.121094 79.519531 "/>
<path style=" stroke:none;fill-rule:evenodd;fill:rgb(0%,54.492188%,81.639099%);fill-opacity:1;" d="M 992.179688 79.519531 C 999.671875 79.519531 1005.75 85.589844 1005.75 93.082031 C 1005.75 100.570313 999.671875 106.640625 992.179688 106.640625 C 984.699219 106.640625 978.621094 100.570313 978.621094 93.082031 C 978.621094 85.589844 984.699219 79.519531 992.179688 79.519531 Z M 992.179688 79.519531 "/>
</g>
</svg>
